<svg xmlns="http://www.w3.org/2000/svg" viewBox="0 0 32 32">
    <path stroke="gray" fill="gray"
        d="M 29 1.4375 L 3 1.4375 C 1.34375 1.4375 0 2.78125 0 4.4375 L 0 26.4375 C 0 28.09375 1.34375 29.4375 3 29.4375 L 29 29.4375 C 30.65625 29.4375 32 28.09375 32 26.4375 L 32 4.4375 C 32 2.78125 30.65625 1.4375 29 1.4375 Z M 14 25.4375 L 4 25.4375 L 4 19.4375 L 14 19.4375 Z M 14 15.4375 L 4 15.4375 L 4 9.4375 L 14 9.4375 Z M 28 25.4375 L 18 25.4375 L 18 19.4375 L 28 19.4375 Z M 28 15.4375 L 18 15.4375 L 18 9.4375 L 28 9.4375 Z M 28 15.4375 ">
    </path>
</svg>